<svg xmlns="http://www.w3.org/2000/svg" viewBox="0 0 220 220" width="220" height="220">
  <title>SideQuest — Fresh Leaf sticker (Health)</title>
  <rect x="8" y="8" width="204" height="204" rx="30" fill="#44d7a8" stroke="#171512" stroke-width="7"/>
  <rect x="24" y="22" width="64" height="16" rx="8" fill="#ffffff" opacity="0.45"/>
  <path d="M 110 38 C 52 56 48 132 78 168 C 112 186 164 156 172 108 C 176 76 152 50 110 38 Z"
        fill="#fffaf0" stroke="#171512" stroke-width="6" stroke-linejoin="round"/>
  <path d="M 110 50 C 94 96 98 138 108 170" stroke="#171512" stroke-width="5" fill="none" stroke-linecap="round"/>
  <path d="M 110 78 L 90 92" stroke="#171512" stroke-width="4" stroke-linecap="round"/>
  <path d="M 110 102 L 132 112" stroke="#171512" stroke-width="4" stroke-linecap="round"/>
  <path d="M 110 126 L 90 140" stroke="#171512" stroke-width="4" stroke-linecap="round"/>
  <circle cx="128" cy="98" r="4" fill="#171512"/>
  <circle cx="150" cy="98" r="4" fill="#171512"/>
  <path d="M 130 112 Q 140 120 150 112" stroke="#171512" stroke-width="3.5" fill="none" stroke-linecap="round"/>
  <circle cx="136" cy="94" r="1.6" fill="#ffffff"/>
  <circle cx="158" cy="94" r="1.6" fill="#ffffff"/>
  <polygon points="44,58 47,50 50,58 58,61 50,64 47,72 44,64 36,61"
           fill="#ffd43d" stroke="#171512" stroke-width="2.5" stroke-linejoin="round"/>
  <polygon points="172,170 175,162 178,170 186,173 178,176 175,184 172,176 164,173"
           fill="#ffd43d" stroke="#171512" stroke-width="2.5" stroke-linejoin="round"/>
</svg>
